<svg xmlns="http://www.w3.org/2000/svg" fill="none" viewBox="0 0 50 50"><path fill="#E24329" d="M24.9982 48.0521l9.2113-28.3335H15.8004l9.1978 28.3335z"/><path fill="#FCA326" d="M2.8985 19.7187l-2.805 8.6081c-.2539.7816.0202 1.6444.6902 2.1317l24.2147 17.5936L2.8985 19.7187z"/><path fill="#E24329" d="M2.8984 19.7187h12.902l-5.5527-17.064c-.2842-.873-1.5227-.873-1.817 0l-5.5323 17.064z"/><path fill="#FCA326" d="M47.1115 19.7187l2.795 8.6081c.2538.7816-.0203 1.6444-.6903 2.1317l-24.218 17.5936 22.1133-28.3334z"/><path fill="#E24329" d="M47.1115 19.7187H34.2096l5.5424-17.064c.2842-.873 1.5227-.873 1.8171 0l5.5424 17.064z"/><path fill="#FC6D26" d="M24.9982 48.0521l9.2112-28.3334h12.9021L24.9982 48.0521zm0 0L2.8984 19.7187h12.902l9.1978 28.3334z"/></svg>